<svg xmlns="http://www.w3.org/2000/svg" width="19.32" height="19.372" viewBox="0 0 5.1116939 5.1255393" id="svg5290"><defs id="defs5284"><style id="style5835">.cls-1{fill:#e61035}</style><clipPath id="a"><path id="path5848" d="M0 88.347h72.98V0H0z"/></clipPath><style id="style5903">.cls-1{fill:#dcdcdc}</style><style id="style2">.cls-1{fill:#dcdcdc}</style><style id="style4489">.cls-1{fill:#e61035}</style><style id="style2-5">.cls-1{fill:#cececf;fill-rule:evenodd}</style><style id="style4489-4">.cls-1{fill:#303336}</style><style id="style2-2">.cls-1{fill:#cececf;fill-rule:evenodd}</style><style id="style4489-2">.cls-1{fill:#303336}</style><style id="style2-0">.cls-1{fill:#cececf;fill-rule:evenodd}</style><style id="style4489-9">.cls-1{fill:#303336}</style><style id="style5973">.cls-1{fill:#a1a1a1;fill-rule:evenodd}</style></defs><g id="layer1" transform="translate(255.91 -168.05)"><path d="M12.537 0c-.16 0-.319.012-.478.012h-6.5a9.315 9.315 0 0 0-1.73.4 5.99 5.99 0 0 0-3.811 4.66.808.808 0 0 0-.012.27v8.68c0 .555.13 1.103.38 1.6a5.92 5.92 0 0 0 4.54 3.72c.098.022.2.033.3.03h.004c.05 0 .1-.01.14-.01h8.62c.48-.028.948-.151 1.38-.362l.12-.04a5.724 5.724 0 0 0 3.78-4.509v-.031a1.54 1.54 0 0 0 .048-.44V5.281l-.029-.08-.09-.39a7.174 7.174 0 0 0-.29-.971c-.214-.432-.376-.83-.67-1.28a5.645 5.645 0 0 0-.811-.96 5.727 5.727 0 0 0-.971-.73 5.433 5.433 0 0 0-1.148-.52A8.726 8.726 0 0 0 13.037 0zM6.096 2.932h7.191a3 3 0 0 1 3.041 2.449c.051.226.074.46.07.691v7.24a3.021 3.021 0 0 1-2.43 3.06 3.757 3.757 0 0 1-.68.07h-7.25a3.027 3.027 0 0 1-3.05-2.45 3.599 3.599 0 0 1-.06-.681c-.012-2.86-.012-5.16-.012-7.26a3.02 3.02 0 0 1 2.451-3.049c.241-.044.484-.067.729-.07zm7.95.949a1.286 1.286 0 0 0-1.269 1.3 1.283 1.283 0 0 0 1.291 1.301h.01c1.733-.007 1.722-2.609-.012-2.601zm-4.34 1.432c-5.78-.013-5.8 8.658-.02 8.67h.011c5.78.012 5.8-8.66.02-8.67zm-.048 1.566a2.806 2.806 0 1 1 0 5.613 2.806 2.806 0 0 1 0-5.613z" transform="translate(-255.91 168.05) scale(.26458)" id="path5977" fill="#a1a1a1" stroke-width="3.78"/></g></svg>