<svg xmlns="http://www.w3.org/2000/svg" width="107" height="19" viewBox="0 0 107 19">
  <defs>
    <style>
      .cls-1 {
        fill: #dcdcdc;
        fill-rule: evenodd;
      }
    </style>
  </defs>
  <path class="cls-1" d="M1339.67,1171.02l5.16,4.98,11.04-13.48-4.93-5.21Zm22.9-13.98-11.19,14.01,5.23,4.95,11.24-13.74h10.82l-1.08,1.54h-8.78l-5.82,7.29,4.82,4.91h8.78l3.85-5.42h-9.26l1.24-1.66h9.03l5.38-6.59-4.5-5.32Zm-51.45-.03-4.42,5.37h10.39l-1.09,1.36h-10.42l-5.58,6.78,4.95,5.48,5.37-6.63h8.58l6.06-7.43-4.01-4.93h-9.83Zm16.31,13.28,6.42-7.84h2.36l-6.4,7.85Zm3.35-13.28-10.93,13.44,4.68,5.54V1176h8.79l-0.01-.02,11.07-13.41-4.26-5.56h-9.34Zm62.2-.01-4.26,5.26h10.77l-1.24,1.54H1387.8l-4.76,5.66-0.89,1.06,4.74,5.48,3.85-4.95,3.44,4.95h8.25l-5.11-6.64h3.71l5.97-7.66-3.95-4.69Z" transform="translate(-1300 -1157)"/>
</svg>
