<svg xmlns="http://www.w3.org/2000/svg" width="146.97" height="20" viewBox="0 0 146.97 20">
  <defs>
    <style>
      .cls-1 {
        fill: #a1a1a1;
        fill-rule: evenodd;
      }
    </style>
  </defs>
  <path class="cls-1" d="M1172.84,1164.39a3.618,3.618,0,0,0,2.2-3.43c0-3.41-3.24-3.7-5.86-3.7h-6.16v15.96h6.71c3.19,0,6.37-1.2,6.37-4.89a3.725,3.725,0,0,0-3.26-3.86v-0.08Zm-5.49-.83v-3.37h1.19c1.17,0,2.44.1,2.44,1.59,0,1.65-1.25,1.78-2.55,1.78h-1.08Zm0,6.73v-3.99h1.85c1.41,0,2.79.16,2.79,1.95,0,1.91-1.78,2.04-3.26,2.04h-1.38Zm-33.94-11.43a7.705,7.705,0,0,1-2.41.66,4.3,4.3,0,0,0,1.86-2.31,8.736,8.736,0,0,1-2.69,1.01,4.2,4.2,0,0,0-7.27,2.9,3.8,3.8,0,0,0,.11.95,12.058,12.058,0,0,1-8.68-4.41,4.263,4.263,0,0,0-.56,2.13,4.189,4.189,0,0,0,1.89,3.51,4.432,4.432,0,0,1-1.91-.53v0.05a4.156,4.156,0,0,0,3.37,4.12,3.889,3.889,0,0,1-1.12.16,3.532,3.532,0,0,1-.79-0.08,4.261,4.261,0,0,0,3.93,2.93,8.447,8.447,0,0,1-5.23,1.81c-0.32,0-.67-0.03-0.98-0.06a11.931,11.931,0,0,0,6.44,1.89,11.6,11.6,0,0,0,10.91-7.1,12.534,12.534,0,0,0,1.06-4.89,5.148,5.148,0,0,0-.02-0.56A8.181,8.181,0,0,0,1133.41,1158.86Zm84.28-3.46a13.963,13.963,0,0,0-3.8-.4c-2.94,0-4.17,2.23-4.17,4.92v1.78h-1.75v3.54h1.75V1175h3.56v-9.76h3.53v-3.54h-3.53v-2.1c0-.88,1.49-1.33,2.18-1.33a6.218,6.218,0,0,1,1.7.27Zm-133.01,18.5h-8.6a1.007,1.007,0,0,1-.31-0.01,5.287,5.287,0,0,1-4.08-3.36,2.79,2.79,0,0,1-.32-1.35v-8.63a0.605,0.605,0,0,1,0-.19,5.292,5.292,0,0,1,3.42-4.17,9.122,9.122,0,0,1,1.49-.36h6.5c0.32,0,.65-0.01.98-0.01a7.828,7.828,0,0,1,2.07.32,4.686,4.686,0,0,1,1.02.46,4.521,4.521,0,0,1,.86.65,4.907,4.907,0,0,1,.72.85,9.206,9.206,0,0,1,.55,1.03c0.02,0.04.04,0.08,0.06,0.13,0.16,0.41.24,0.86,0.36,1.29v8.63a1.508,1.508,0,0,1-.04.34,5.056,5.056,0,0,1-3.38,4.02A3.571,3.571,0,0,1,1084.68,1173.9Zm-4.3-16.43c-1.19,0-2.37-.01-3.56,0a4.913,4.913,0,0,0-.86.08,3.638,3.638,0,0,0-2.95,3.68q-0.015,3.63,0,7.26a3.8,3.8,0,0,0,.08.82,3.644,3.644,0,0,0,3.67,2.95h7.25a3.758,3.758,0,0,0,3.75-3.77v-7.24a4.556,4.556,0,0,0-.08-0.82,3.659,3.659,0,0,0-3.66-2.96C1082.8,1157.46,1081.59,1157.47,1080.38,1157.47Zm-4.43,17.08a1.058,1.058,0,0,1-.3-0.03,5.92,5.92,0,0,1-4.54-3.72,3.55,3.55,0,0,1-.38-1.6v-8.68a0.857,0.857,0,0,1,.01-0.27,5.989,5.989,0,0,1,3.81-4.66,9.317,9.317,0,0,1,1.73-.4h6.5c0.16,0,.32-0.01.48-0.01h0.5a8.8,8.8,0,0,1,2.27.35,5.457,5.457,0,0,1,1.15.52,5.729,5.729,0,0,1,.97.73,5.649,5.649,0,0,1,.81.96,8.73,8.73,0,0,1,.6,1.12l0.01,0.03c0.02,0.04.04,0.09,0.06,0.13a7.14,7.14,0,0,1,.29.97l0.09,0.39,0.03,0.08v8.7a1.608,1.608,0,0,1-.05.44v0.03a5.725,5.725,0,0,1-3.78,4.51l-0.12.04a3.605,3.605,0,0,1-1.38.36h-8.62C1076.05,1174.54,1076,1174.55,1075.95,1174.55Zm-0.08-1.29a0.485,0.485,0,0,0,.17,0h8.63a2.7,2.7,0,0,0,.94-0.26l0.13-.05a4.414,4.414,0,0,0,2.99-3.55l0.01-.04a0.784,0.784,0,0,0,.02-0.14v-8.59c-0.03-.11-0.06-0.23-0.09-0.34a5.3,5.3,0,0,0-.22-0.79c-0.01-.02-0.02-0.03-0.03-0.05l-0.02-.05a6.435,6.435,0,0,0-.51-0.95,3.873,3.873,0,0,0-.62-0.73,4.123,4.123,0,0,0-.75-0.57,4.294,4.294,0,0,0-.89-0.41,7.793,7.793,0,0,0-1.87-.28h-0.48c-0.17,0-.34.01-0.5,0.01h-6.46a9.119,9.119,0,0,0-1.29.31,4.692,4.692,0,0,0-3.03,3.66h0v8.73a2.231,2.231,0,0,0,.27,1.09A4.684,4.684,0,0,0,1075.87,1173.26Zm3.92-.36h-3.03a4.32,4.32,0,0,1-4.3-3.46,4.686,4.686,0,0,1-.09-0.94c-0.01-2.87-.01-5.18,0-7.27a4.286,4.286,0,0,1,3.45-4.3,5.524,5.524,0,0,1,1-.1h7.2a4.292,4.292,0,0,1,4.28,3.47,4.646,4.646,0,0,1,.09.95c0.01,2.62.01,4.99,0.01,7.24a4.315,4.315,0,0,1-3.45,4.31,4.671,4.671,0,0,1-.94.1h-4.22Zm-1.32-14.79h-1.65a4.512,4.512,0,0,0-.73.07,3.021,3.021,0,0,0-2.45,3.05c0,2.1,0,4.4.01,7.26a3.51,3.51,0,0,0,.06.68,3.029,3.029,0,0,0,3.05,2.45h7.25a3.639,3.639,0,0,0,.68-0.07,3.023,3.023,0,0,0,2.43-3.06v-7.24a2.874,2.874,0,0,0-.07-0.69,3,3,0,0,0-3.04-2.45h-5.54Zm1.94,10.41a3.7,3.7,0,1,1,3.7-3.68A3.694,3.694,0,0,1,1080.41,1168.52Zm2.47-3.69a2.46,2.46,0,1,0-2.46,2.46A2.471,2.471,0,0,0,1082.88,1164.83Zm-2.46,4.33h-0.01a4.335,4.335,0,0,1,.02-8.67h0.01A4.335,4.335,0,0,1,1080.42,1169.16Zm-0.01-1.23,0.01,0.59v-0.59h-0.01Zm0.01-5.57V1163a1.833,1.833,0,0,0-1.82,1.82,1.807,1.807,0,0,0,.53,1.29,1.783,1.783,0,0,0,1.29.54,1.825,1.825,0,0,0,0-3.65v-0.64Zm5.03-2.01a0.653,0.653,0,0,1-.65.67,0.641,0.641,0,0,1-.66-0.66A0.655,0.655,0,1,1,1085.45,1160.35Zm-0.66,1.31a1.281,1.281,0,0,1-1.29-1.3,1.285,1.285,0,0,1,1.27-1.3h0.02a1.3,1.3,0,0,1,.01,2.6h-0.01Zm0-1.32a0.016,0.016,0,0,0-.02.02c0,0.01.01,0.01,0.01,0.02h0.01v0c0.02-.01.02-0.01,0.02-0.02A0.016,0.016,0,0,0,1084.79,1160.34Z" transform="translate(-1070.72 -1155)"/>
</svg>
