<svg xmlns="http://www.w3.org/2000/svg" width="13.084" height="15.959" viewBox="0 0 3.4617279 4.2224879" id="svg5290"><defs id="defs5284"><style id="style5835">.cls-1{fill:#e61035;fill-rule:evenodd}</style><clipPath id="a"><path id="path5848" d="M0 88.347h72.98V0H0z"/></clipPath><style id="style5903">.cls-1{fill:#dcdcdc;fill-rule:evenodd}</style><style id="style2">.cls-1{fill:#dcdcdc;fill-rule:evenodd}</style><style id="style4489">.cls-1{fill:#e61035}</style><style id="style2-5">.cls-1{fill:#cececf;fill-rule:evenodd}</style><style id="style4489-4">.cls-1{fill:#303336}</style><style id="style2-2">.cls-1{fill:#cececf;fill-rule:evenodd}</style><style id="style4489-2">.cls-1{fill:#303336}</style><style id="style2-0">.cls-1{fill:#cececf;fill-rule:evenodd}</style><style id="style4489-9">.cls-1{fill:#303336}</style><style id="style5973">.cls-1{fill:#a1a1a1;fill-rule:evenodd}</style></defs><g id="layer1" transform="translate(234.663 -155.071)"><path d="M-886.914 586.096v15.959h6.709c3.19 0 6.371-1.201 6.371-4.89a3.725 3.725 0 0 0-3.262-3.86v-.08a3.618 3.618 0 0 0 2.201-3.43c0-3.41-3.239-3.7-5.859-3.7zm4.33 2.93h1.19c1.17 0 2.439.1 2.439 1.59 0 1.65-1.249 1.779-2.549 1.779h-1.08zm0 6.109h1.85c1.41 0 2.789.159 2.789 1.949 0 1.91-1.78 2.041-3.26 2.041h-1.379z" transform="scale(.26458)" id="path5977" fill="#a1a1a1" fill-rule="evenodd"/></g></svg>