<svg xmlns="http://www.w3.org/2000/svg" width="117" height="320" viewBox="0 0 117 320">

<svg id="menu-hover" viewBox="-5 -5 41.03 37" width="41" height="37" y="0">
<g fill-rule="evenodd">
<path d="m6.12 22.092a63.747 63.747 0 0 0 -2.904 4.908h27.814v-4.908h-24.91z"/>
<path d="m0.01 22.092v4.908h3.205a63.747 63.747 0 0 1 2.906 -4.908h-6.111z" fill="#303336"/>
<path d="m14.74 11.455a63.747 63.747 0 0 0 -4.295 4.707 63.747 63.747 0 0 0 -0.164 0.2h20.75v-4.907h-16.291z"/>
<path d="m0.01 11.455v4.908h10.27a63.747 63.747 0 0 1 0.165 -0.2 63.747 63.747 0 0 1 4.295 -4.708h-14.73z" fill="#303336"/>
<path d="m30.553 0a63.747 63.747 0 0 0 -5.498 3.223 63.747 63.747 0 0 0 -2.446 1.685h8.42v-4.908h-0.478z"/>
<path d="m0.01 0v4.908h22.6a63.747 63.747 0 0 1 2.445 -1.685 63.747 63.747 0 0 1 5.498 -3.223h-30.543z" fill="#303336"/></g></svg>

<svg width="41" viewBox="-5 -5 41.03 37" height="37" id="menu" y="37">
<path d="m0.01 0h31.02v4.908h-31.02v-4.908zm0 11.455h31.02v4.91h-31.02v-4.91zm0 10.636h31.02v4.909h-31.02v-4.91z" fill="#303336"/></svg>

<svg id="poirr-hover" viewBox="-5 -5 117 29" width="117" height="29" y="74">
<path d="m92.98 0l-4.26 5.26h10.77l-1.238 1.54h-10.45l-4.76 5.66-0.892 1.06 4.74 5.48 3.85-4.95 3.442 4.95h8.25l-5.112-6.64h3.71l5.97-7.66-3.95-4.69zm-58.73 0.01v5.44h1.96l-1.96 2.404v9.988l10.13-12.272-4.26-5.56zm48.08 0l-19.76 0.03-11.19 14.01 5.23 4.95 11.243-13.74h10.82l-1.08 1.54h-8.78l-5.822 7.29 4.819 4.91h8.782l3.85-5.42h-9.26l1.24-1.66h9.03l5.378-6.59zm-31.39 0.3l-11.267 13.71 5.157 4.98 11.04-13.48z" fill="#e61035"/>
<path d="m11.12 0.005l-4.42 5.37h10.392l-1.092 1.36h-10.42l-5.58 6.781 4.95 5.48 5.37-6.63h8.58l6.06-7.43-4.01-4.93zm19.66 0l-10.928 13.44 4.68 5.54v0.01h8.788l-0.01-0.02 0.94-1.138v-9.987l-4.44 5.446-2.38-0.01 6.42-7.842h0.4v-5.44z" fill-rule="evenodd" fill="#dcdcdc"/>
</svg>

<svg width="117" viewBox="-5 -5 117 29" height="29" id="poirr" y="103">
<path d="m39.67 14.02l5.16 4.98 11.04-13.48-4.93-5.21zm22.9-13.98l-11.19 14.01 5.23 4.95 11.24-13.74h10.82l-1.08 1.54h-8.78l-5.82 7.29 4.82 4.91h8.78l3.85-5.42h-9.26l1.24-1.66h9.03l5.38-6.59-4.5-5.32zm-51.45-0.03l-4.42 5.37h10.39l-1.09 1.36h-10.42l-5.58 6.78 4.95 5.48 5.37-6.63h8.58l6.06-7.43-4.01-4.93h-9.83zm16.31 13.28l6.42-7.84h2.36l-6.4 7.85zm3.35-13.28l-10.93 13.44 4.68 5.54v0.01h8.79l-0.01-0.02 11.07-13.41-4.26-5.56h-9.34zm62.2-0.01l-4.26 5.26h10.77l-1.24 1.54h-10.45l-4.76 5.66-0.89 1.06 4.74 5.48 3.85-4.95 3.44 4.95h8.25l-5.11-6.64h3.71l5.97-7.66-3.95-4.69z" class="cls-1"/>
</svg>

<svg xmlns:rdf="http://www.w3.org/1999/02/22-rdf-syntax-ns#" xmlns:cc="http://creativecommons.org/ns#" xmlns:dc="http://purl.org/dc/elements/1.1/" id="search-hover" height="44" width="44" version="1.1" viewBox="-5 -5 44 44" y="132">
<g transform="translate(-19.022 -33.155)">
<g stroke-width="1.0094" transform="translate(6.4688e-8 -.0000031913)">
<path  d="m45.47 40.034a14.199 13.923 0 1 0 -17.444 20.001 63.714 62.472 0 0 1 0.16526 -0.33579 63.714 62.472 0 0 1 2.9209 -4.6717 8.3908 8.2273 0 0 1 2.2957 -16.163v0.0019a8.3541 8.1913 0 0 1 7.568 4.8826 63.714 62.472 0 0 1 3.5242 -3.0357 63.714 62.472 0 0 1 0.96964 -0.67938z" fill="#cececf"/>
<path fill="#303336" d="m45.47 40.034a63.714 62.472 0 0 0 -0.96964 0.67938 63.714 62.472 0 0 0 -3.5242 3.0357 8.3541 8.1913 0 0 1 0.71877 3.3442 8.3908 8.2273 0 0 1 -10.582 7.9339 63.714 62.472 0 0 0 -2.9209 4.6717 63.714 62.472 0 0 0 -0.16526 0.33579 14.199 13.923 0 0 0 5.3818 0.97808 14.135 13.86 0 0 0 7.2912 -2.0635l8.2649 8.2053 4.0578-4.0275-8.1235-8.0628a14.135 13.86 0 0 0 2.5366 -7.971 14.199 13.923 0 0 0 -1.9652 -7.0593z"/>
</g>
</g>
</svg>
<svg xmlns:rdf="http://www.w3.org/1999/02/22-rdf-syntax-ns#" xmlns:cc="http://creativecommons.org/ns#" xmlns:dc="http://purl.org/dc/elements/1.1/" id="search" height="44" width="44" version="1.1" viewBox="-5 -5 44 44" y="176">
<path id="search-path6-9-2-8" d="m14.378 27.856a14.206 13.929 0 1 1 14.033 -13.926 14.141 13.866 0 0 1 -14.033 13.926zm0-22.157a8.3944 8.2308 0 1 0 8.2914 8.2318 8.3577 8.1948 0 0 0 -8.2914 -8.2298zm15.563 28.301-10.158-10.085 4.059-4.029 10.158 10.085z"  stroke-width="1.0099" fill="#cececf"/></svg>
<svg xmlns:rdf="http://www.w3.org/1999/02/22-rdf-syntax-ns#" xmlns:cc="http://creativecommons.org/ns#" xmlns:dc="http://purl.org/dc/elements/1.1/" id="user-hover" xml:space="preserve" height="50" viewBox="-5 -5 47 50" width="47" version="1.1" y="220"><defs id="user-hover-defs6"><clipPath id="user-hover-clipPath30" clipPathUnits="userSpaceOnUse"><path id="user-hover-path28" d="m24.545 67.592c-13.556 0-24.545-10.989-24.545-24.545 0-13.555 10.989-24.544 24.545-24.544 13.555 0 24.544 10.989 24.544 24.544 0 13.556-10.989 24.545-24.544 24.545z"/></clipPath><clipPath id="user-hover-clipPath42" clipPathUnits="userSpaceOnUse"><path id="user-hover-path40" d="m0 67.592h49.089v-67.592h-49.089z"/></clipPath><style id="user-hover-style5322">      .cls-1 {        fill: #303336;        opacity: 0.2;        mix-blend-mode: multiply;      }    </style></defs><g id="user-hover-g10" transform="matrix(1.3333 0 0 -1.3333 14.909 104.71)"><g id="user-hover-g9495" transform="matrix(.56530 0 0 .56530 -4.8607 23.305)"><circle id="user-hover-path9347-3" style="paint-order:markers stroke fill" stroke-width=".86856" transform="matrix(-.47503 -.87997 -.87997 .47503 0 0)" cy="22.954" cx="-70.652" r="24.544" fill="#ccc"/><g id="user-hover-g9369" transform="translate(-11.284 30.028)"><g id="user-hover-g24"><g id="user-hover-g26" clip-path="url(#user-hover-clipPath30)"><g id="user-hover-g32" transform="translate(46.019,22.667)"><path id="user-hover-path34" d="m0 0c-4.245 7.077-12.277 11.854-21.493 11.854-9.043 0-16.946-4.598-21.252-11.456l21.559-23.065z" fill="#b2b6bc"/></g></g></g><g id="user-hover-g36"><g id="user-hover-g38" clip-path="url(#user-hover-clipPath42)"><g id="user-hover-g44" transform="translate(19.971 34.695)"><path id="user-hover-path46" d="m0 0v-5.592l4.781-5.131 4.907 5.131v5.864z" fill="#d2d6db"/></g><g id="user-hover-g48" transform="translate(16.056 46.915)"><path id="user-hover-path50" d="m0 0c0-2.316-0.756-4.213-1.679-4.213-0.924 0-2.032 1.897-2.462 4.213-0.43 2.318 0.326 4.214 1.68 4.214 1.353 0 2.461-1.896 2.461-4.214" fill="#f8f9fa"/></g><g id="user-hover-g52" transform="translate(33.165,46.915)"><path id="user-hover-path54" d="m0 0c0-2.316 0.756-4.213 1.68-4.213 0.923 0 2.031 1.897 2.461 4.213 0.43 2.318-0.326 4.214-1.679 4.214-1.354 0-2.462-1.896-2.462-4.214" fill="#e4e5e9"/></g><g id="user-hover-g56" transform="translate(24.762 54.167)"><path id="user-hover-path58" d="m0 0-3.521-20.944 3.521-2.956c1.331 0.032 2.648 0.294 3.669 0.792 2.183 1.065 4.401 4.114 4.929 6.776l2.76 13.915v2.417z" fill="#e4e5e9"/></g><g id="user-hover-g60" transform="translate(32.351 61.108)"><path id="user-hover-path62" d="m0 0s-2.955 2.313-7.764 2.313c-4.551 0-7.781-2.313-7.781-2.313-2.713-1.155-4.501-5.842-3.973-8.504l2.93-14.769c0.528-2.663 2.709-5.711 4.847-6.777 1.137-0.567 2.671-0.829 4.186-0.792l-2.042 5.06 3.435 15.687h9.856l0.28 1.591c0.527 2.662-1.261 7.349-3.974 8.504" fill="#f8f9fa"/></g><g id="user-hover-g64" transform="translate(24.762 30.267)"><path id="user-hover-path66" d="m0 0-1.668 0.673-2.533 7.648h5.815z" fill="#f8f9fa"/></g><g id="user-hover-g68" transform="translate(18.3 45.37)"><path id="user-hover-path70" d="m0 0h11.75v2.631h-11.094z" fill="#e4e5e9"/></g></g></g></g><path id="user-hover-Ellipse_17_copy" opacity=".2" style="mix-blend-mode:multiply" d="m-4.1261 55.857a24.545 24.544 16.639 0 1 1.771 -1.6318 24.545 24.544 16.639 0 1 1.96 -1.4751 24.545 24.544 16.639 0 1 2.0977 -1.273 24.545 24.544 16.639 0 1 1.5571 -0.77051 24.545 24.544 16.639 0 1 2.2837 -0.89648 24.545 24.544 16.639 0 1 2.3628 -0.66357 24.545 24.544 16.639 0 1 2.4155 -0.42627 24.545 24.544 16.639 0 1 2.4463 -0.18164 24.545 24.544 16.639 0 1 2.4536 0.06298 24.545 24.544 16.639 0 1 2.4331 0.30908 24.545 24.544 16.639 0 1 2.3921 0.54932 24.545 24.544 16.639 0 1 2.3232 0.78516 24.545 24.544 16.639 0 1 2.2354 1.0122 24.545 24.544 16.639 0 1 2.1211 1.2319 24.545 24.544 16.639 0 1 1.9893 1.437 24.545 24.544 16.639 0 1 1.8354 1.6289 24.545 24.544 16.639 0 1 1.6626 1.8032 24.545 24.544 16.639 0 1 1.4751 1.96 24.545 24.544 16.639 0 1 1.2715 2.0991 24.545 24.544 16.639 0 1 0.77051 1.5557 24.545 24.544 16.639 0 1 0.89795 2.2837 24.545 24.544 16.639 0 1 0.66357 2.3628 24.545 24.544 16.639 0 1 0.4248 2.4155 24.545 24.544 16.639 0 1 0.18311 2.4478 24.545 24.544 16.639 0 1 -0.06445 2.4521 24.545 24.544 16.639 0 1 -0.30762 2.4331 24.545 24.544 16.639 0 1 -0.54932 2.3921 24.545 24.544 16.639 0 1 -0.78516 2.3247 24.545 24.544 16.639 0 1 -1.0137 2.2339 24.545 24.544 16.639 0 1 -0.41016 0.70899 60.646 60.646 0 0 1 -38.896 -29.171z" stroke-width=".97034" fill="#303336"/></g></g></svg><svg width="47" viewBox="-5 -5 47 50" height="50" id="user" y="270"><defs><clipPath id="user-a"><path d="m0 164.57h126.75v-164.57h-126.75z"/></clipPath><clipPath id="user-b"><path d="m6.73 98.94c0-31.156 25.256-56.412 56.412-56.412 31.155 0 56.412 25.256 56.412 56.412 0 31.155-25.257 56.413-56.412 56.413-31.156 0-56.413-25.258-56.413-56.413"/></clipPath><clipPath id="user-c"><path d="m0 164.57h126.75v-164.57h-126.75z"/></clipPath><clipPath id="user-d"><path d="m63.642 124.5l-8.092-48.14 8.092-6.795c3.06 0.073 6.086 0.676 8.433 1.82 5.017 2.45 10.116 9.457 11.33 15.574l6.344 31.98v5.55z"/></clipPath><clipPath id="user-e"><path d="m0 164.57h126.75v-164.57h-126.75z"/></clipPath></defs><g transform="matrix(.32794 0 0 -.32776 -2.207 53.94)" clip-path="url(#user-a)"><path d="m119.55 98.94c0-31.156-25.258-56.413-56.412-56.413-31.156 0-56.413 25.257-56.413 56.412 0 31.15 25.25 56.41 56.41 56.41 31.15 0 56.41-25.26 56.41-56.42" fill="#e41c36"/></g><g transform="matrix(.32794 0 0 -.32776 -2.207 53.94)" clip-path="url(#user-b)"><path d="m126.75 52.1c-12.58 16.264-36.403 27.243-63.73 27.243-26.816 0-50.255-10.568-63.02-26.33l63.93-53.013z" fill="#252627"/><path d="m98.766 79.635c-7.03 6.81-20.328 11.408-35.588 11.408-14.974 0-28.06-4.426-35.188-11.025l35.695-32.368z" fill="#383738"/></g><g transform="matrix(.32794 0 0 -.32776 -2.207 53.94)" clip-path="url(#user-c)"><path d="m52.63 79.744v-12.852l10.99-11.792 11.277 11.79v13.48zm-7.998 24.07c0-3.117-1.737-5.67-3.86-5.67s-4.326 2.51-4.894 5.576l-1.527 8.22c-0.56 3.065 1.52 5.573 4.63 5.573s5.66-2.55 5.66-5.67zm37.324 0c0-3.117 1.737-5.67 3.86-5.67 2.122 0 4.326 2.51 4.895 5.576l1.53 8.22c0.57 3.064-1.51 5.573-4.62 5.573s-5.66-2.55-5.66-5.67z" fill="#cb9689"/><path d="m63.642 124.5l-8.092-48.14 8.092-6.796c3.06 0.075 6.086 0.677 8.433 1.822 5.017 2.448 10.116 9.456 11.33 15.573l6.343 31.98v5.55z" fill="#e5af9c"/></g><g transform="matrix(.32794 0 0 -.32776 -2.207 53.94)" clip-path="url(#user-d)"><path d="m62.806 64.56l-3.05 4.617-5.77 19.513h13.364z" fill="#f7c1aa"/></g><g transform="matrix(.32794 0 0 -.32776 -2.207 53.94)" clip-path="url(#user-e)"><path d="m81.085 132.03h-35.73c-6.234 0-10.344-5.005-9.13-11.122l6.735-33.95c1.213-6.12 6.226-13.126 11.14-15.575 2.614-1.303 6.138-1.905 9.62-1.82l-4.693 11.63 8.284 41.538 22.52 1.764v-5.555l0.39 1.964c1.21 6.117-2.9 11.122-9.13 11.122" fill="#f7c1aa"/><path stroke="#e41c36" stroke-miterlimit="10" d="m90.845 132.01c0-5.24-12.154-9.488-27.147-9.488s-27.146 4.24-27.146 9.48 12.153 9.485 27.146 9.485 27.147-4.24 27.147-9.48z" fill="none"/><g fill="#383738"><path d="m67.06 107.06h-8.027v6.85h8.026z"/><path d="m43.9 104.39c0.604-2.26 3.01-4.107 5.35-4.107h6.483c2.34 0 4.787 1.84 5.44 4.09l2.21 7.595c0.655 2.245-0.723 4.08-3.062 4.08h-15.281c-2.34 0-3.76-1.85-3.155-4.106z"/><path d="m82.71 104.39c-0.603-2.26-3.01-4.11-5.35-4.11h-6.483c-2.34 0-4.787 1.838-5.44 4.083l-2.21 7.593c-0.655 2.246 0.723 4.082 3.062 4.082h15.28c2.34 0 3.75-1.848 3.15-4.108z"/></g><g fill="#252627"><path d="m106.42 125.93c0-8.85-18.782-16.02-41.947-16.02-23.16 0-41.94 7.17-41.94 16.02s18.78 16.022 41.95 16.022 41.95-7.172 41.95-16.022m-23.58 32.212c0-3.547-8.23-6.422-18.377-6.422s-18.375 2.875-18.375 6.422 8.228 6.423 18.377 6.423c10.15 0 18.378-2.876 18.378-6.423"/><path d="m55.96 133.34l-18.278 0.85 6.582 21.184s2.298 7.57 9.732 7.57c7.436 0 8.838-6.74 8.838-6.74h1.824s0.35-24.75 0-25.1c-0.35-0.35-8.698 2.246-8.698 2.246"/><path d="m72.982 133.34l18.278 0.85-6.582 21.184s-2.296 7.57-9.73 7.57c-7.438 0-8.84-6.74-8.84-6.74h-3.038s-1.76-24.094-1.41-24.444c0.35-0.35 11.322 1.59 11.322 1.59"/></g><path d="m64.47 124.92c-13.1 0-24.116 3.402-27.327 8.02-0.617-0.885-0.95-1.816-0.95-2.778 0-5.965 12.66-10.8 28.278-10.8 15.62 0 28.28 4.835 28.28 10.8 0 0.962-0.33 1.893-0.95 2.78-3.21-4.62-14.22-8.022-27.32-8.022" fill="#383738"/></g></svg></svg>
