<svg xmlns="http://www.w3.org/2000/svg" width="117" height="320" viewBox="0 0 117 320"><svg id="menu-hover" viewBox="-5 -5 41.03 37" width="41" height="37"><g fill-rule="evenodd"><path d="M6.12 22.092A63.747 63.747 0 0 0 3.216 27H31.03v-4.908H6.12z"/><path d="M.01 22.092V27h3.205a63.747 63.747 0 0 1 2.906-4.908H.01z" fill="#303336"/><path d="M14.74 11.455a63.747 63.747 0 0 0-4.295 4.707 63.747 63.747 0 0 0-.164.2h20.75v-4.907H14.74z"/><path d="M.01 11.455v4.908h10.27a63.747 63.747 0 0 1 .165-.2 63.747 63.747 0 0 1 4.295-4.708H.01z" fill="#303336"/><path d="M30.553 0a63.747 63.747 0 0 0-5.498 3.223 63.747 63.747 0 0 0-2.446 1.685h8.42V0h-.478z"/><path d="M.01 0v4.908h22.6a63.747 63.747 0 0 1 2.445-1.685A63.747 63.747 0 0 1 30.553 0H.01z" fill="#303336"/></g></svg><svg width="41" viewBox="-5 -5 41.03 37" height="37" id="menu" y="37"><path d="M.01 0h31.02v4.908H.01V0zm0 11.455h31.02v4.91H.01v-4.91zm0 10.636h31.02V27H.01v-4.91z" fill="#303336"/></svg><svg id="poirr-hover" viewBox="-5 -5 117 29" width="117" height="29" y="74"><path d="M92.98 0l-4.26 5.26h10.77L98.252 6.8h-10.45l-4.76 5.66-.892 1.06L86.89 19l3.85-4.95L94.182 19h8.25l-5.112-6.64h3.71L107 4.7 103.05.01zM34.25.01v5.44h1.96l-1.96 2.404v9.988L44.38 5.57 40.12.01zm48.08 0L62.57.04 51.38 14.05 56.61 19 67.853 5.26h10.82l-1.08 1.54h-8.78l-5.822 7.29L67.81 19h8.782l3.85-5.42h-9.26l1.24-1.66h9.03l5.378-6.59zm-31.39.3L39.673 14.02 44.83 19 55.87 5.52z" fill="#e61035"/><path d="M11.12.005L6.7 5.375h10.392L16 6.735H5.58L0 13.516l4.95 5.48 5.37-6.63h8.58l6.06-7.43-4.01-4.93zm19.66 0l-10.928 13.44 4.68 5.54v.01h8.788l-.01-.02.94-1.138V7.85l-4.44 5.446-2.38-.01 6.42-7.842h.4V.004z" fill-rule="evenodd" fill="#dcdcdc"/></svg><svg width="117" viewBox="-5 -5 117 29" height="29" id="poirr" y="103"><path d="M39.67 14.02L44.83 19 55.87 5.52 50.94.31zM62.57.04L51.38 14.05 56.61 19 67.85 5.26h10.82L77.59 6.8h-8.78l-5.82 7.29L67.81 19h8.78l3.85-5.42h-9.26l1.24-1.66h9.03l5.38-6.59-4.5-5.32zM11.12.01L6.7 5.38h10.39L16 6.74H5.58L0 13.52 4.95 19l5.37-6.63h8.58l6.06-7.43L20.95.01h-9.83zm16.31 13.28l6.42-7.84h2.36l-6.4 7.85zM30.78.01L19.85 13.45l4.68 5.54V19h8.79l-.01-.02L44.38 5.57 40.12.01h-9.34zM92.98 0l-4.26 5.26h10.77L98.25 6.8H87.8l-4.76 5.66-.89 1.06L86.89 19l3.85-4.95L94.18 19h8.25l-5.11-6.64h3.71L107 4.7 103.05.01z" class="cls-1"/></svg><svg xmlns:rdf="http://www.w3.org/1999/02/22-rdf-syntax-ns#" xmlns:cc="http://creativecommons.org/ns#" xmlns:dc="http://purl.org/dc/elements/1.1/" id="search-hover" height="44" width="44" viewBox="-5 -5 44 44" y="132"><g stroke-width="1.009"><path d="M45.47 40.034a14.199 13.923 0 1 0-17.444 20.001 63.714 62.472 0 0 1 .165-.336 63.714 62.472 0 0 1 2.921-4.671 8.39 8.227 0 0 1 2.296-16.163v.001a8.354 8.191 0 0 1 7.568 4.883 63.714 62.472 0 0 1 3.524-3.036 63.714 62.472 0 0 1 .97-.68z" fill="#cececf" transform="translate(-19.022 -33.155)"/><path fill="#303336" d="M45.47 40.034a63.714 62.472 0 0 0-.97.68 63.714 62.472 0 0 0-3.524 3.035 8.354 8.191 0 0 1 .719 3.344 8.39 8.227 0 0 1-10.582 7.934 63.714 62.472 0 0 0-2.921 4.672 63.714 62.472 0 0 0-.165.336 14.199 13.923 0 0 0 5.382.978 14.135 13.86 0 0 0 7.29-2.064l8.266 8.206 4.057-4.028-8.123-8.063a14.135 13.86 0 0 0 2.537-7.97 14.199 13.923 0 0 0-1.966-7.06z" transform="translate(-19.022 -33.155)"/></g></svg><svg xmlns:rdf="http://www.w3.org/1999/02/22-rdf-syntax-ns#" xmlns:cc="http://creativecommons.org/ns#" xmlns:dc="http://purl.org/dc/elements/1.1/" id="search" height="44" width="44" viewBox="-5 -5 44 44" y="176"><path id="search-path6-9-2-8" d="M14.378 27.856A14.206 13.929 0 1 1 28.411 13.93a14.141 13.866 0 0 1-14.033 13.926zm0-22.157a8.394 8.23 0 1 0 8.291 8.232 8.358 8.195 0 0 0-8.291-8.23zM29.941 34L19.783 23.915l4.059-4.029L34 29.971z" stroke-width="1.01" fill="#cececf"/></svg><svg xmlns:rdf="http://www.w3.org/1999/02/22-rdf-syntax-ns#" xmlns:cc="http://creativecommons.org/ns#" xmlns:dc="http://purl.org/dc/elements/1.1/" id="user-hover" height="50" viewBox="-5 -5 47 50" width="47" y="220"><defs id="user-hover-defs6"><clipPath id="user-hover-clipPath30"><path id="user-hover-path28" d="M24.545 67.592C10.989 67.592 0 56.603 0 43.047c0-13.555 10.989-24.544 24.545-24.544 13.555 0 24.544 10.989 24.544 24.544 0 13.556-10.989 24.545-24.544 24.545z"/></clipPath><clipPath id="user-hover-clipPath42"><path id="user-hover-path40" d="M0 67.592h49.089V0H0z"/></clipPath><style id="user-hover-style5322">.cls-1{fill:#303336;opacity:.2;mix-blend-mode:multiply}</style></defs><g id="user-hover-g10" transform="matrix(1.3333 0 0 -1.3333 14.909 104.71)"><g id="user-hover-g9495" transform="translate(-4.86 23.305) scale(.5653)"><circle id="user-hover-path9347-3" stroke-width=".869" transform="scale(-1 1) rotate(-61.639)" cy="22.954" cx="-70.652" r="24.544" fill="#ccc" paint-order="markers stroke fill"/><g id="user-hover-g9369" transform="translate(-11.284 30.028)"><g id="user-hover-g24"><g id="user-hover-g26" clip-path="url(#user-hover-clipPath30)"><g id="user-hover-g32" transform="translate(46.019 22.667)"><path id="user-hover-path34" d="M0 0c-4.245 7.077-12.277 11.854-21.493 11.854-9.043 0-16.946-4.598-21.252-11.456l21.559-23.065z" fill="#b2b6bc"/></g></g></g><g id="user-hover-g36"><g id="user-hover-g38" clip-path="url(#user-hover-clipPath42)"><g id="user-hover-g44" transform="translate(19.971 34.695)"><path id="user-hover-path46" d="M0 0v-5.592l4.781-5.131 4.907 5.131V.272z" fill="#d2d6db"/></g><g id="user-hover-g48" transform="translate(16.056 46.915)"><path id="user-hover-path50" d="M0 0c0-2.316-.756-4.213-1.679-4.213-.924 0-2.032 1.897-2.462 4.213-.43 2.318.326 4.214 1.68 4.214C-1.108 4.214 0 2.318 0 0" fill="#f8f9fa"/></g><g id="user-hover-g52" transform="translate(33.165 46.915)"><path id="user-hover-path54" d="M0 0c0-2.316.756-4.213 1.68-4.213.923 0 2.031 1.897 2.461 4.213.43 2.318-.326 4.214-1.679 4.214C1.108 4.214 0 2.318 0 0" fill="#e4e5e9"/></g><g id="user-hover-g56" transform="translate(24.762 54.167)"><path id="user-hover-path58" d="M0 0l-3.521-20.944L0-23.9c1.331.032 2.648.294 3.669.792 2.183 1.065 4.401 4.114 4.929 6.776l2.76 13.915V0z" fill="#e4e5e9"/></g><g id="user-hover-g60" transform="translate(32.351 61.108)"><path id="user-hover-path62" d="M0 0s-2.955 2.313-7.764 2.313C-12.315 2.313-15.545 0-15.545 0c-2.713-1.155-4.501-5.842-3.973-8.504l2.93-14.769c.528-2.663 2.709-5.711 4.847-6.777 1.137-.567 2.671-.829 4.186-.792l-2.042 5.06 3.435 15.687h9.856l.28 1.591C4.501-5.842 2.713-1.155 0 0" fill="#f8f9fa"/></g><g id="user-hover-g64" transform="translate(24.762 30.267)"><path id="user-hover-path66" d="M0 0l-1.668.673-2.533 7.648h5.815z" fill="#f8f9fa"/></g><g id="user-hover-g68" transform="translate(18.3 45.37)"><path id="user-hover-path70" d="M0 0h11.75v2.631H.656z" fill="#e4e5e9"/></g></g></g></g><path id="user-hover-Ellipse_17_copy" opacity=".2" style="mix-blend-mode:multiply" d="M-4.126 55.857a24.545 24.544 16.639 0 1 1.77-1.632 24.545 24.544 16.639 0 1 1.96-1.475 24.545 24.544 16.639 0 1 2.099-1.273 24.545 24.544 16.639 0 1 1.557-.77 24.545 24.544 16.639 0 1 2.283-.897 24.545 24.544 16.639 0 1 2.363-.663 24.545 24.544 16.639 0 1 2.416-.427 24.545 24.544 16.639 0 1 2.446-.181 24.545 24.544 16.639 0 1 2.454.063 24.545 24.544 16.639 0 1 2.433.309 24.545 24.544 16.639 0 1 2.392.549 24.545 24.544 16.639 0 1 2.323.785 24.545 24.544 16.639 0 1 2.235 1.012 24.545 24.544 16.639 0 1 2.121 1.232 24.545 24.544 16.639 0 1 1.99 1.437 24.545 24.544 16.639 0 1 1.835 1.63 24.545 24.544 16.639 0 1 1.663 1.802 24.545 24.544 16.639 0 1 1.475 1.96 24.545 24.544 16.639 0 1 1.271 2.1 24.545 24.544 16.639 0 1 .77 1.555 24.545 24.544 16.639 0 1 .899 2.284 24.545 24.544 16.639 0 1 .663 2.363 24.545 24.544 16.639 0 1 .425 2.415 24.545 24.544 16.639 0 1 .183 2.448 24.545 24.544 16.639 0 1-.064 2.452 24.545 24.544 16.639 0 1-.308 2.433 24.545 24.544 16.639 0 1-.549 2.392 24.545 24.544 16.639 0 1-.785 2.325 24.545 24.544 16.639 0 1-1.014 2.234 24.545 24.544 16.639 0 1-.41.709A60.646 60.646 0 0 1-4.126 55.857z" stroke-width=".97" fill="#303336"/></g></g></svg><svg width="47" viewBox="-5 -5 47 50" height="50" id="user" y="270"><defs><clipPath id="user-a"><path d="M0 164.57h126.75V0H0z"/></clipPath><clipPath id="user-b"><path d="M6.73 98.94c0-31.156 25.256-56.412 56.412-56.412 31.155 0 56.412 25.256 56.412 56.412 0 31.155-25.257 56.413-56.412 56.413-31.156 0-56.413-25.258-56.413-56.413"/></clipPath><clipPath id="user-c"><path d="M0 164.57h126.75V0H0z"/></clipPath><clipPath id="user-d"><path d="M63.642 124.5L55.55 76.36l8.092-6.795c3.06.073 6.086.676 8.433 1.82 5.017 2.45 10.116 9.457 11.33 15.574l6.344 31.98v5.55z"/></clipPath><clipPath id="user-e"><path d="M0 164.57h126.75V0H0z"/></clipPath></defs><g transform="matrix(.32794 0 0 -.32776 -2.207 53.94)" clip-path="url(#user-a)"><path d="M119.55 98.94c0-31.156-25.258-56.413-56.412-56.413-31.156 0-56.413 25.257-56.413 56.412 0 31.15 25.25 56.41 56.41 56.41 31.15 0 56.41-25.26 56.41-56.42" fill="#e41c36"/></g><g transform="matrix(.32794 0 0 -.32776 -2.207 53.94)" clip-path="url(#user-b)"><path d="M126.75 52.1c-12.58 16.264-36.403 27.243-63.73 27.243-26.816 0-50.255-10.568-63.02-26.33L63.93 0z" fill="#252627"/><path d="M98.766 79.635c-7.03 6.81-20.328 11.408-35.588 11.408-14.974 0-28.06-4.426-35.188-11.025L63.685 47.65z" fill="#383738"/></g><g transform="matrix(.32794 0 0 -.32776 -2.207 53.94)" clip-path="url(#user-c)"><path d="M52.63 79.744V66.892L63.62 55.1l11.277 11.79v13.48zm-7.998 24.07c0-3.117-1.737-5.67-3.86-5.67s-4.326 2.51-4.894 5.576l-1.527 8.22c-.56 3.065 1.52 5.573 4.63 5.573s5.66-2.55 5.66-5.67zm37.324 0c0-3.117 1.737-5.67 3.86-5.67 2.122 0 4.326 2.51 4.895 5.576l1.53 8.22c.57 3.064-1.51 5.573-4.62 5.573s-5.66-2.55-5.66-5.67z" fill="#cb9689"/><path d="M63.642 124.5L55.55 76.36l8.092-6.796c3.06.075 6.086.677 8.433 1.822 5.017 2.448 10.116 9.456 11.33 15.573l6.343 31.98v5.55z" fill="#e5af9c"/></g><g transform="matrix(.32794 0 0 -.32776 -2.207 53.94)" clip-path="url(#user-d)"><path d="M62.806 64.56l-3.05 4.617-5.77 19.513H67.35z" fill="#f7c1aa"/></g><g transform="matrix(.32794 0 0 -.32776 -2.207 53.94)" clip-path="url(#user-e)"><path d="M81.085 132.03h-35.73c-6.234 0-10.344-5.005-9.13-11.122l6.735-33.95c1.213-6.12 6.226-13.126 11.14-15.575 2.614-1.303 6.138-1.905 9.62-1.82l-4.693 11.63 8.284 41.538 22.52 1.764v-5.555l.39 1.964c1.21 6.117-2.9 11.122-9.13 11.122" fill="#f7c1aa"/><path stroke="#e41c36" stroke-miterlimit="10" d="M90.845 132.01c0-5.24-12.154-9.488-27.147-9.488s-27.146 4.24-27.146 9.48 12.153 9.485 27.146 9.485 27.147-4.24 27.147-9.48z" fill="none"/><g fill="#383738"><path d="M67.06 107.06h-8.027v6.85h8.026z"/><path d="M43.9 104.39c.604-2.26 3.01-4.107 5.35-4.107h6.483c2.34 0 4.787 1.84 5.44 4.09l2.21 7.595c.655 2.245-.723 4.08-3.062 4.08H45.04c-2.34 0-3.76-1.85-3.155-4.106z"/><path d="M82.71 104.39c-.603-2.26-3.01-4.11-5.35-4.11h-6.483c-2.34 0-4.787 1.838-5.44 4.083l-2.21 7.593c-.655 2.246.723 4.082 3.062 4.082h15.28c2.34 0 3.75-1.848 3.15-4.108z"/></g><g fill="#252627"><path d="M106.42 125.93c0-8.85-18.782-16.02-41.947-16.02-23.16 0-41.94 7.17-41.94 16.02s18.78 16.022 41.95 16.022 41.95-7.172 41.95-16.022m-23.58 32.212c0-3.547-8.23-6.422-18.377-6.422s-18.375 2.875-18.375 6.422 8.228 6.423 18.377 6.423c10.15 0 18.378-2.876 18.378-6.423"/><path d="M55.96 133.34l-18.278.85 6.582 21.184s2.298 7.57 9.732 7.57c7.436 0 8.838-6.74 8.838-6.74h1.824s.35-24.75 0-25.1c-.35-.35-8.698 2.246-8.698 2.246"/><path d="M72.982 133.34l18.278.85-6.582 21.184s-2.296 7.57-9.73 7.57c-7.438 0-8.84-6.74-8.84-6.74H63.07s-1.76-24.094-1.41-24.444c.35-.35 11.322 1.59 11.322 1.59"/></g><path d="M64.47 124.92c-13.1 0-24.116 3.402-27.327 8.02-.617-.885-.95-1.816-.95-2.778 0-5.965 12.66-10.8 28.278-10.8 15.62 0 28.28 4.835 28.28 10.8 0 .962-.33 1.893-.95 2.78-3.21-4.62-14.22-8.022-27.32-8.022" fill="#383738"/></g></svg></svg>