<?xml version="1.0" encoding="UTF-8" standalone="no"?>
<!-- Created with Inkscape (http://www.inkscape.org/) -->

<svg
   xmlns:dc="http://purl.org/dc/elements/1.1/"
   xmlns:cc="http://creativecommons.org/ns#"
   xmlns:rdf="http://www.w3.org/1999/02/22-rdf-syntax-ns#"
   xmlns:svg="http://www.w3.org/2000/svg"
   xmlns="http://www.w3.org/2000/svg"
   xmlns:sodipodi="http://sodipodi.sourceforge.net/DTD/sodipodi-0.dtd"
   xmlns:inkscape="http://www.inkscape.org/namespaces/inkscape"
   width="5.1116939mm"
   height="5.1255393mm"
   viewBox="0 0 5.1116939 5.1255393"
   version="1.1"
   id="svg5290"
   sodipodi:docname="instagram.svg"
   inkscape:version="0.92.1 r15371">
  <defs
     id="defs5284">
    <style
       id="style5835">
      .cls-1 {
        fill: #e61035;
   

      }
    </style>
    <clipPath
       id="a">
      <path
         id="path5848"
         d="M 0,88.347 H 72.98 V 0 H 0 Z"
         inkscape:connector-curvature="0" />
    </clipPath>
    <style
       id="style5903">
      .cls-1 {
        fill: #dcdcdc;


      }
    </style>
    <style
       id="style2">
      .cls-1 {
        fill: #dcdcdc;

      }
    </style>
    <style
       id="style4489">
      .cls-1 {
        fill: #e61035;
      }
    </style>
    <style
       id="style2-5">
      .cls-1 {
        fill: #cececf;
        fill-rule: evenodd;
      }
    </style>
    <style
       id="style4489-4">
      .cls-1 {
        fill: #303336;
      }
    </style>
    <style
       id="style2-2">
      .cls-1 {
        fill: #cececf;
        fill-rule: evenodd;
      }
    </style>
    <style
       id="style4489-2">
      .cls-1 {
        fill: #303336;
      }
    </style>
    <style
       id="style2-0">
      .cls-1 {
        fill: #cececf;
        fill-rule: evenodd;
      }
    </style>
    <style
       id="style4489-9">
      .cls-1 {
        fill: #303336;
      }
    </style>
    <style
       id="style5973">
      .cls-1 {
        fill: #a1a1a1;
        fill-rule: evenodd;
      }
    </style>
  </defs>
  <sodipodi:namedview
     id="base"
     pagecolor="#ffffff"
     bordercolor="#666666"
     borderopacity="1.0"
     inkscape:pageopacity="0.0"
     inkscape:pageshadow="2"
     inkscape:zoom="11.313709"
     inkscape:cx="21.935862"
     inkscape:cy="-6.0864508"
     inkscape:document-units="mm"
     inkscape:current-layer="layer1"
     showgrid="false"
     inkscape:window-width="2560"
     inkscape:window-height="1361"
     inkscape:window-x="-9"
     inkscape:window-y="-9"
     inkscape:window-maximized="1" />
  <metadata
     id="metadata5287">
    <rdf:RDF>
      <cc:Work
         rdf:about="">
        <dc:format>image/svg+xml</dc:format>
        <dc:type
           rdf:resource="http://purl.org/dc/dcmitype/StillImage" />
        <dc:title />
      </cc:Work>
    </rdf:RDF>
  </metadata>
  <g
     inkscape:label="Layer 1"
     inkscape:groupmode="layer"
     id="layer1"
     transform="translate(255.90918,-168.05072)">
    <path
       style="fill:#a1a1a1;stroke-width:3.77952766"
       d="M 12.537109,0 C 12.377235,0 12.218468,0.01171875 12.058594,0.01171875 H 5.5585938 C 4.9704993,0.0896904 4.3907455,0.2238889 3.828125,0.41210938 1.8130699,1.1680527 0.35811356,2.9471885 0.01757813,5.0722656 -0.00131951,5.1610845 -0.00547921,5.2518441 0.00585938,5.3417969 v 8.6796871 c -3.0237e-4,0.555742 0.13065465,1.103396 0.38085937,1.59961 0.74883775,1.955716 2.47430655,3.371097 4.53906245,3.720703 0.098268,0.02268 0.1998679,0.03308 0.3007813,0.0293 h 0.00391 c 0.04989,0 0.098609,-0.0098 0.1386718,-0.0098 H 13.990234 C 14.469592,19.334493 14.937708,19.21052 15.369141,19 l 0.121093,-0.03906 c 1.995326,-0.691163 3.447455,-2.424374 3.779297,-4.509766 v -0.03125 c 0.03855,-0.14366 0.05257,-0.291296 0.04883,-0.439453 V 5.28125 l -0.0293,-0.080078 -0.08984,-0.390625 C 19.125518,4.4807453 19.027636,4.1558123 18.908203,3.8398438 18.694887,3.4078437 18.533084,3.0106886 18.238281,2.5605469 18.00482,2.2114319 17.732742,1.8883653 17.427734,1.5996094 17.131155,1.3226078 16.805504,1.0773926 16.457031,0.86914062 16.095104,0.65185559 15.710735,0.47773536 15.308594,0.34960938 14.57049,0.1341763 13.805827,0.01511811 13.037109,0 Z M 6.0957031,2.9316406 h 1.6503907 5.5410152 c 1.478816,-0.044674 2.770402,0.9946676 3.041016,2.4492188 0.05102,0.2263181 0.07409,0.4593432 0.07031,0.6914062 V 13.3125 c 0.04664,1.476775 -0.980731,2.76946 -2.429688,3.058594 -0.223975,0.04346 -0.453357,0.06838 -0.681641,0.07031 H 6.0371094 C 4.5586716,16.478824 3.270612,15.443942 2.9882812,13.992188 2.9470844,13.768024 2.9256178,13.538452 2.9277344,13.310547 2.9163958,10.450578 2.9160156,8.1507624 2.9160156,6.0507812 2.8752345,4.5712096 3.913619,3.2812602 5.3671875,3.0019531 5.608208,2.9584886 5.8507897,2.9351178 6.0957031,2.9316406 Z m 7.9511719,0.9492188 c -0.70972,0.00824 -1.27709,0.5910615 -1.269531,1.3007812 -0.0107,0.7184504 0.572527,1.3045608 1.291015,1.3007813 h 0.0098 c 1.733329,-0.00756 1.72161,-2.6091216 -0.01172,-2.6015625 z M 9.7050781,5.3125 C 3.9250844,5.299914 3.9055532,13.971083 9.6855471,13.982422 h 0.011719 C 15.477259,13.995008 15.496791,5.3238386 9.7167969,5.3125 Z M 9.6582031,6.8789062 C 11.208339,6.8787344 12.465016,8.1354109 12.464844,9.6855469 12.465016,11.235683 11.208339,12.49236 9.6582031,12.492188 8.1088298,12.491281 6.8533435,11.23492 6.8535156,9.6855469 6.8533437,8.1361735 8.10883,6.879813 9.6582031,6.8789062 Z"
       transform="matrix(0.26458333,0,0,0.26458333,-255.90918,168.05072)"
       id="path5977"
       inkscape:connector-curvature="0"
       sodipodi:nodetypes="ssccccccccsscccccccccccccccscccccccccccccccccccccccccccccc" />
  </g>
</svg>
