<svg xmlns="http://www.w3.org/2000/svg" id="svg7" width="31.03" height="27" viewBox="0 0 31.03 27">
  <defs id="defs4">
    <style id="style2">
      .cls-1 { fill: #303336; fill-rule: evenodd; }
    </style>
  </defs>
  <path id="path8465" fill-rule="evenodd" d="M6.12 22.092A63.747 63.747 0 0 0 3.216 27H31.03v-4.908H6.12z"/>
  <path id="path8463" fill="#303336" fill-rule="evenodd" d="M.01 22.092V27h3.205a63.747 63.747 0 0 1 2.906-4.908H.01z"/>
  <path id="path8461" fill-rule="evenodd" d="M14.74 11.455a63.747 63.747 0 0 0-4.295 4.707 63.747 63.747 0 0 0-.164.2h20.75v-4.907H14.74z"/>
  <path id="path8459" fill="#303336" fill-rule="evenodd" d="M.01 11.455v4.908h10.27a63.747 63.747 0 0 1 .165-.2 63.747 63.747 0 0 1 4.295-4.708H.01z"/>
  <path id="path8457" fill-rule="evenodd" d="M30.553 0a63.747 63.747 0 0 0-5.498 3.223 63.747 63.747 0 0 0-2.446 1.685h8.42V0h-.478z"/>
  <path id="Rectangle_1_copy_5-5" fill="#303336" fill-rule="evenodd" d="M.01 0v4.908h22.6a63.747 63.747 0 0 1 2.445-1.685A63.747 63.747 0 0 1 30.553 0H.01z"/>
</svg>
