<svg xmlns="http://www.w3.org/2000/svg" width="107" height="19" viewBox="0 0 107 19">
  <defs>
    <style>
      .cls-1 { fill: #dcdcdc; fill-rule: evenodd; }
    </style>
  </defs>
  <path d="M39.67 14.02L44.83 19 55.87 5.52 50.94.31zM62.57.04L51.38 14.05 56.61 19 67.85 5.26h10.82L77.59 6.8h-8.78l-5.82 7.29L67.81 19h8.78l3.85-5.42h-9.26l1.24-1.66h9.03l5.38-6.59-4.5-5.32zM11.12.01L6.7 5.38h10.39L16 6.74H5.58L0 13.52 4.95 19l5.37-6.63h8.58l6.06-7.43L20.95.01h-9.83zm16.31 13.28l6.42-7.84h2.36l-6.4 7.85zM30.78.01L19.85 13.45l4.68 5.54V19h8.79l-.01-.02L44.38 5.57 40.12.01h-9.34zM92.98 0l-4.26 5.26h10.77L98.25 6.8H87.8l-4.76 5.66-.89 1.06L86.89 19l3.85-4.95L94.18 19h8.25l-5.11-6.64h3.71L107 4.7 103.05.01z" class="cls-1"/>
</svg>
