<svg xmlns="http://www.w3.org/2000/svg" id="svg8" width="107" height="19" viewBox="0 0 107 19">
  <defs id="defs4">
    <style id="style2">
      .cls-1 { fill: #dcdcdc; fill-rule: evenodd; }
    </style>
    <style id="style4489">
      .cls-1 { fill: #e61035; }
    </style>
  </defs>
  <g id="g4753">
    <path id="path6-6" fill="#e61035" d="M92.98 0l-4.26 5.26h10.77L98.252 6.8h-10.45l-4.76 5.66-.892 1.06L86.89 19l3.85-4.95L94.182 19h8.25l-5.112-6.64h3.71L107 4.7 103.05.01zM34.25.01v5.44h1.96l-1.96 2.404v9.988L44.38 5.57 40.12.01zm48.08 0L62.57.04 51.38 14.05 56.61 19 67.853 5.26h10.82l-1.08 1.54h-8.78l-5.822 7.29L67.81 19h8.782l3.85-5.42h-9.26l1.24-1.66h9.03l5.378-6.59zm-31.39.3L39.673 14.02 44.83 19 55.87 5.52z"/>
    <path id="path6" fill="#dcdcdc" fill-rule="evenodd" d="M11.12.005L6.7 5.375h10.392L16 6.735H5.58L0 13.516l4.95 5.48 5.37-6.63h8.58l6.06-7.43-4.01-4.93zm19.66 0l-10.928 13.44 4.68 5.54v.01h8.788l-.01-.02.94-1.138V7.85l-4.44 5.446-2.38-.01 6.42-7.842h.4V.004z"/>
  </g>
</svg>
