<?xml version="1.0" encoding="UTF-8" standalone="no"?>
<!-- Created with Inkscape (http://www.inkscape.org/) -->

<svg
   xmlns:dc="http://purl.org/dc/elements/1.1/"
   xmlns:cc="http://creativecommons.org/ns#"
   xmlns:rdf="http://www.w3.org/1999/02/22-rdf-syntax-ns#"
   xmlns:svg="http://www.w3.org/2000/svg"
   xmlns="http://www.w3.org/2000/svg"
   xmlns:sodipodi="http://sodipodi.sourceforge.net/DTD/sodipodi-0.dtd"
   xmlns:inkscape="http://www.inkscape.org/namespaces/inkscape"
   width="34"
   height="34"
   viewBox="0 0 34 34"
   version="1.1"
   id="svg4583"
   inkscape:version="0.92.1 r15371"
   sodipodi:docname="search-hover.svg">
  <defs
     id="defs4577" />
  <sodipodi:namedview
     id="base"
     pagecolor="#ffffff"
     bordercolor="#666666"
     borderopacity="1.0"
     inkscape:pageopacity="0.0"
     inkscape:pageshadow="2"
     inkscape:zoom="1.979899"
     inkscape:cx="74.686236"
     inkscape:cy="-50.195436"
     inkscape:document-units="mm"
     inkscape:current-layer="layer1"
     showgrid="false"
     inkscape:window-width="2560"
     inkscape:window-height="1361"
     inkscape:window-x="-9"
     inkscape:window-y="-9"
     inkscape:window-maximized="1"
     units="px" />
  <metadata
     id="metadata4580">
    <rdf:RDF>
      <cc:Work
         rdf:about="">
        <dc:format>image/svg+xml</dc:format>
        <dc:type
           rdf:resource="http://purl.org/dc/dcmitype/StillImage" />
        <dc:title></dc:title>
      </cc:Work>
    </rdf:RDF>
  </metadata>
  <g
     inkscape:label="Layer 1"
     inkscape:groupmode="layer"
     id="layer1"
     transform="translate(-19.022288,-33.154701)">
    <g
       id="g8418"
       transform="translate(6.4688379e-8,-3.1913134e-6)">
      <path
         id="path4544"
         d="m 45.470229,40.034096 a 14.19948,13.922734 0 1 0 -17.443604,20.000765 63.713656,62.471885 0 0 1 0.165258,-0.335786 63.713656,62.471885 0 0 1 2.920872,-4.671727 8.3908337,8.2272974 0 0 1 2.295683,-16.162647 v 0.0019 a 8.3541346,8.1913136 0 0 1 7.567988,4.882568 63.713656,62.471885 0 0 1 3.524161,-3.035743 63.713656,62.471885 0 0 1 0.969642,-0.679382 z"
         style="fill:#cececf;fill-opacity:1;stroke-width:1.00943542"
         inkscape:connector-curvature="0" />
      <path
         id="path6"
         d="m 45.470229,40.034096 a 63.713656,62.471885 0 0 0 -0.969642,0.679382 63.713656,62.471885 0 0 0 -3.524161,3.035743 8.3541346,8.1913136 0 0 1 0.718769,3.344198 8.3908337,8.2272974 0 0 1 -10.58244,7.933929 63.713656,62.471885 0 0 0 -2.920872,4.671727 63.713656,62.471885 0 0 0 -0.165258,0.335786 14.19948,13.922734 0 0 0 5.381813,0.978075 14.135257,13.859763 0 0 0 7.291232,-2.063524 l 8.264856,8.205291 4.057762,-4.027484 -8.123491,-8.062777 a 14.135257,13.859763 0 0 0 2.536601,-7.971023 14.19948,13.922734 0 0 0 -1.965169,-7.059323 z"
         style="fill:#303336;stroke-width:1.00943542"
         inkscape:connector-curvature="0" />
    </g>
  </g>
</svg>
