<?xml version="1.0" encoding="UTF-8" standalone="no"?>
<!-- Created with Inkscape (http://www.inkscape.org/) -->

<svg
   xmlns:dc="http://purl.org/dc/elements/1.1/"
   xmlns:cc="http://creativecommons.org/ns#"
   xmlns:rdf="http://www.w3.org/1999/02/22-rdf-syntax-ns#"
   xmlns:svg="http://www.w3.org/2000/svg"
   xmlns="http://www.w3.org/2000/svg"
   xmlns:sodipodi="http://sodipodi.sourceforge.net/DTD/sodipodi-0.dtd"
   xmlns:inkscape="http://www.inkscape.org/namespaces/inkscape"
   width="5.4182749mm"
   height="4.4201303mm"
   viewBox="0 0 5.4182749 4.4201303"
   version="1.1"
   id="svg5290"
   inkscape:version="0.92.1 r15371"
   sodipodi:docname="instagram.svg">
  <defs
     id="defs5284">
    <style
       id="style5835">
      .cls-1 {
        fill: #e61035;
        fill-rule: evenodd;
      }
    </style>
    <clipPath
       id="a">
      <path
         id="path5848"
         d="M 0,88.347 H 72.98 V 0 H 0 Z"
         inkscape:connector-curvature="0" />
    </clipPath>
    <style
       id="style5903">
      .cls-1 {
        fill: #dcdcdc;
        fill-rule: evenodd;
      }
    </style>
    <style
       id="style2">
      .cls-1 {
        fill: #dcdcdc;
        fill-rule: evenodd;
      }
    </style>
    <style
       id="style4489">
      .cls-1 {
        fill: #e61035;
      }
    </style>
    <style
       id="style2-5">
      .cls-1 {
        fill: #cececf;
        fill-rule: evenodd;
      }
    </style>
    <style
       id="style4489-4">
      .cls-1 {
        fill: #303336;
      }
    </style>
    <style
       id="style2-2">
      .cls-1 {
        fill: #cececf;
        fill-rule: evenodd;
      }
    </style>
    <style
       id="style4489-2">
      .cls-1 {
        fill: #303336;
      }
    </style>
    <style
       id="style2-0">
      .cls-1 {
        fill: #cececf;
        fill-rule: evenodd;
      }
    </style>
    <style
       id="style4489-9">
      .cls-1 {
        fill: #303336;
      }
    </style>
    <style
       id="style5973">
      .cls-1 {
        fill: #a1a1a1;
        fill-rule: evenodd;
      }
    </style>
  </defs>
  <sodipodi:namedview
     id="base"
     pagecolor="#ffffff"
     bordercolor="#666666"
     borderopacity="1.0"
     inkscape:pageopacity="0.0"
     inkscape:pageshadow="2"
     inkscape:zoom="5.6"
     inkscape:cx="14.512782"
     inkscape:cy="-13.131173"
     inkscape:document-units="mm"
     inkscape:current-layer="layer1"
     showgrid="false"
     inkscape:window-width="2560"
     inkscape:window-height="1361"
     inkscape:window-x="-9"
     inkscape:window-y="-9"
     inkscape:window-maximized="1" />
  <metadata
     id="metadata5287">
    <rdf:RDF>
      <cc:Work
         rdf:about="">
        <dc:format>image/svg+xml</dc:format>
        <dc:type
           rdf:resource="http://purl.org/dc/dcmitype/StillImage" />
        <dc:title></dc:title>
      </cc:Work>
    </rdf:RDF>
  </metadata>
  <g
     inkscape:label="Layer 1"
     inkscape:groupmode="layer"
     id="layer1"
     transform="translate(247.91561,-154.97171)">
    <path
       style="fill:#a1a1a1;fill-rule:evenodd;stroke-width:0.99999994"
       d="m -922.75195,585.7207 a 4.1999999,4.1999999 0 0 0 -4.28321,4.23438 3.8000001,3.8000001 0 0 0 0.10938,0.94922 12.058,12.058 0 0 1 -8.67969,-4.41016 4.2629997,4.2629997 0 0 0 -0.55859,2.13086 4.189,4.189 0 0 0 1.88867,3.50977 4.4319998,4.4319998 0 0 1 -1.91016,-0.5293 v 0.0488 a 4.1559998,4.1559998 0 0 0 3.3711,4.12109 3.8890001,3.8890001 0 0 1 -1.1211,0.1582 3.532,3.532 0 0 1 -0.78906,-0.0801 4.261,4.261 0 0 0 3.92969,2.93164 8.4469998,8.4469998 0 0 1 -5.23047,1.80859 c -0.32013,0 -0.66852,-0.0287 -0.97852,-0.0586 a 11.931,11.931 0 0 0 6.43946,1.88867 11.6,11.6 0 0 0 10.91015,-7.09961 12.534,12.534 0 0 0 1.0586,-4.89063 5.1479999,5.1479999 0 0 0 -0.0176,-0.55859 8.1809997,8.1809997 0 0 0 2.08789,-2.17969 7.705,7.705 0 0 1 -2.41016,0.66016 4.2999998,4.2999998 0 0 0 1.86133,-2.31055 8.7359999,8.7359999 0 0 1 -2.6914,1.00977 4.1999999,4.1999999 0 0 0 -2.98633,-1.33399 z"
       transform="scale(0.26458333)"
       id="path5977"
       inkscape:connector-curvature="0" />
  </g>
</svg>
