<?xml version="1.0" encoding="UTF-8" standalone="no"?>
<!-- Created with Inkscape (http://www.inkscape.org/) -->

<svg
   xmlns:dc="http://purl.org/dc/elements/1.1/"
   xmlns:cc="http://creativecommons.org/ns#"
   xmlns:rdf="http://www.w3.org/1999/02/22-rdf-syntax-ns#"
   xmlns:svg="http://www.w3.org/2000/svg"
   xmlns="http://www.w3.org/2000/svg"
   xmlns:sodipodi="http://sodipodi.sourceforge.net/DTD/sodipodi-0.dtd"
   xmlns:inkscape="http://www.inkscape.org/namespaces/inkscape"
   version="1.1"
   id="svg2"
   xml:space="preserve"
   width="37"
   height="40"
   viewBox="0 0 37 40"
   sodipodi:docname="user-guest-hover.svg"
   inkscape:version="0.92.1 r15371"><metadata
     id="metadata8"><rdf:RDF><cc:Work
         rdf:about=""><dc:format>image/svg+xml</dc:format><dc:type
           rdf:resource="http://purl.org/dc/dcmitype/StillImage" /><dc:title></dc:title></cc:Work></rdf:RDF></metadata><defs
     id="defs6"><clipPath
       clipPathUnits="userSpaceOnUse"
       id="clipPath18"><path
         d="M 0,67.592 H 49.089 V 0 H 0 Z"
         id="path16"
         inkscape:connector-curvature="0" /></clipPath><clipPath
       clipPathUnits="userSpaceOnUse"
       id="clipPath30"><path
         d="M 24.545,67.592 C 10.989,67.592 0,56.603 0,43.047 v 0 C 0,29.492 10.989,18.503 24.545,18.503 v 0 c 13.555,0 24.544,10.989 24.544,24.544 v 0 c 0,13.556 -10.989,24.545 -24.544,24.545 z"
         id="path28"
         inkscape:connector-curvature="0" /></clipPath><clipPath
       clipPathUnits="userSpaceOnUse"
       id="clipPath42"><path
         d="M 0,67.592 H 49.089 V 0 H 0 Z"
         id="path40"
         inkscape:connector-curvature="0" /></clipPath><style
       id="style5322">
      .cls-1 {
        fill: #303336;
        opacity: 0.2;
        mix-blend-mode: multiply;
      }
    </style><clipPath
       clipPathUnits="userSpaceOnUse"
       id="clipPath18-7"><path
         d="M 0,67.592 H 49.089 V 0 H 0 Z"
         id="path16-2"
         inkscape:connector-curvature="0" /></clipPath><clipPath
       clipPathUnits="userSpaceOnUse"
       id="clipPath18-8"><path
         d="M 0,67.592 H 49.089 V 0 H 0 Z"
         id="path16-4"
         inkscape:connector-curvature="0" /></clipPath></defs><sodipodi:namedview
     pagecolor="#ffffff"
     bordercolor="#666666"
     borderopacity="1"
     objecttolerance="10"
     gridtolerance="10"
     guidetolerance="10"
     inkscape:pageopacity="0"
     inkscape:pageshadow="2"
     inkscape:window-width="2560"
     inkscape:window-height="1361"
     id="namedview4"
     showgrid="false"
     inkscape:zoom="14.813383"
     inkscape:cx="15.949374"
     inkscape:cy="18.355816"
     inkscape:window-x="-9"
     inkscape:window-y="-9"
     inkscape:window-maximized="1"
     inkscape:current-layer="g10" /><g
     id="g10"
     inkscape:groupmode="layer"
     inkscape:label="Vector Smart Object1"
     transform="matrix(1.3333333,0,0,-1.3333333,14.909101,104.708)"><g
       id="g9495"
       transform="matrix(0.5652998,0,0,0.56529981,-4.8607419,23.305443)"><circle
         r="24.544498"
         transform="matrix(-0.47502826,-0.87997054,-0.87997054,0.47502826,0,0)"
         cy="22.954172"
         cx="-70.651939"
         id="path9347-3"
         style="fill:#cccccc;fill-opacity:1;stroke-width:0.86856365;paint-order:markers stroke fill" /><g
         transform="translate(-11.284175,30.02835)"
         id="g9369"><g
           id="g24"><g
             id="g26"
             clip-path="url(#clipPath30)"><g
               id="g32"
               transform="translate(46.019,22.667)"><path
                 d="m 0,0 c -4.245,7.077 -12.277,11.854 -21.493,11.854 -9.043,0 -16.946,-4.598 -21.252,-11.456 l 21.559,-23.065 z"
                 style="fill:#b2b6bc;fill-opacity:1;fill-rule:nonzero;stroke:none"
                 id="path34"
                 inkscape:connector-curvature="0" /></g></g></g><g
           id="g36"><g
             id="g38"
             clip-path="url(#clipPath42)"><g
               id="g44"
               transform="translate(19.9712,34.6953)"><path
                 d="m 0,0 v -5.592 l 4.781,-5.131 4.907,5.131 v 5.864 z"
                 style="fill:#d2d6db;fill-opacity:1;fill-rule:nonzero;stroke:none"
                 id="path46"
                 inkscape:connector-curvature="0" /></g><g
               id="g48"
               transform="translate(16.0562,46.915)"><path
                 d="m 0,0 c 0,-2.316 -0.756,-4.213 -1.679,-4.213 -0.924,0 -2.032,1.897 -2.462,4.213 -0.43,2.318 0.326,4.214 1.68,4.214 C -1.108,4.214 0,2.318 0,0"
                 style="fill:#f8f9fa;fill-opacity:1;fill-rule:nonzero;stroke:none"
                 id="path50"
                 inkscape:connector-curvature="0" /></g><g
               id="g52"
               transform="translate(33.165,46.915)"><path
                 d="M 0,0 C 0,-2.316 0.756,-4.213 1.68,-4.213 2.603,-4.213 3.711,-2.316 4.141,0 4.571,2.318 3.815,4.214 2.462,4.214 1.108,4.214 0,2.318 0,0"
                 style="fill:#e4e5e9;fill-opacity:1;fill-rule:nonzero;stroke:none"
                 id="path54"
                 inkscape:connector-curvature="0" /></g><g
               id="g56"
               transform="translate(24.7622,54.167)"><path
                 d="M 0,0 -3.521,-20.944 0,-23.9 c 1.331,0.032 2.648,0.294 3.669,0.792 2.183,1.065 4.401,4.114 4.929,6.776 l 2.76,13.915 V 0 Z"
                 style="fill:#e4e5e9;fill-opacity:1;fill-rule:nonzero;stroke:none"
                 id="path58"
                 inkscape:connector-curvature="0" /></g><g
               id="g60"
               transform="translate(32.3511,61.1084)"><path
                 d="M 0,0 C 0,0 -2.955,2.313 -7.764,2.313 -12.315,2.313 -15.545,0 -15.545,0 c -2.713,-1.155 -4.501,-5.842 -3.973,-8.504 l 2.93,-14.769 c 0.528,-2.663 2.709,-5.711 4.847,-6.777 1.137,-0.567 2.671,-0.829 4.186,-0.792 l -2.042,5.06 3.435,15.687 h 9.856 l 0.28,1.591 C 4.501,-5.842 2.713,-1.155 0,0"
                 style="fill:#f8f9fa;fill-opacity:1;fill-rule:nonzero;stroke:none"
                 id="path62"
                 inkscape:connector-curvature="0" /></g><g
               id="g64"
               transform="translate(24.7622,30.2666)"><path
                 d="M 0,0 -1.668,0.673 -4.201,8.321 H 1.614 Z"
                 style="fill:#f8f9fa;fill-opacity:1;fill-rule:nonzero;stroke:none"
                 id="path66"
                 inkscape:connector-curvature="0" /></g><g
               id="g68"
               transform="translate(18.2998,45.3701)"><path
                 d="M 0,0 H 11.75 V 2.631 H 0.656 Z"
                 style="fill:#e4e5e9;fill-opacity:1;fill-rule:nonzero;stroke:none"
                 id="path70"
                 inkscape:connector-curvature="0" /></g></g></g></g><path
         id="Ellipse_17_copy"
         d="m -4.1260974,55.856648 a 24.544501,24.5445 16.63881 0 1 1.770996,-1.631836 24.544501,24.5445 16.63881 0 1 1.95996081,-1.475097 24.544501,24.5445 16.63881 0 1 2.09765629,-1.27295 24.544501,24.5445 16.63881 0 1 1.5571291,-0.770507 24.544501,24.5445 16.63881 0 1 2.2836915,-0.896485 24.544501,24.5445 16.63881 0 1 2.3627926,-0.663574 24.544501,24.5445 16.63881 0 1 2.4155281,-0.42627 24.544501,24.5445 16.63881 0 1 2.446289,-0.18164 24.544501,24.5445 16.63881 0 1 2.453613,0.06298 24.544501,24.5445 16.63881 0 1 2.433105,0.309082 24.544501,24.5445 16.63881 0 1 2.39209,0.549316 24.544501,24.5445 16.63881 0 1 2.323243,0.785157 24.544501,24.5445 16.63881 0 1 2.235352,1.012207 24.544501,24.5445 16.63881 0 1 2.121093,1.231934 24.544501,24.5445 16.63881 0 1 1.989258,1.437011 24.544501,24.5445 16.63881 0 1 1.835449,1.628906 24.544501,24.5445 16.63881 0 1 1.662598,1.803223 24.544501,24.5445 16.63881 0 1 1.475098,1.959962 24.544501,24.5445 16.63881 0 1 1.271484,2.099121 24.544501,24.5445 16.63881 0 1 0.770508,1.555663 24.544501,24.5445 16.63881 0 1 0.89795,2.283692 24.544501,24.5445 16.63881 0 1 0.663573,2.362793 24.544501,24.5445 16.63881 0 1 0.424805,2.41553 24.544501,24.5445 16.63881 0 1 0.183106,2.447754 24.544501,24.5445 16.63881 0 1 -0.06445,2.452149 24.544501,24.5445 16.63881 0 1 -0.307617,2.433105 24.544501,24.5445 16.63881 0 1 -0.549316,2.39209 24.544501,24.5445 16.63881 0 1 -0.785157,2.324707 24.544501,24.5445 16.63881 0 1 -1.013671,2.233887 24.544501,24.5445 16.63881 0 1 -0.41016,0.708989 60.646332,60.646332 0 0 1 -38.8959974,-29.170899 z"
         style="opacity:0.2;mix-blend-mode:multiply;fill:#303336;stroke-width:0.97034132"
         inkscape:connector-curvature="0" /></g></g></svg>