<svg xmlns="http://www.w3.org/2000/svg" width="37" height="40" viewBox="0 0 37 40">
  <defs>
    <clipPath id="a">
      <path d="M0 164.568h126.754V0H0z"/>
    </clipPath>
    <clipPath id="b">
      <path d="M6.73 98.94c0-31.156 25.256-56.412 56.412-56.412 31.155 0 56.412 25.256 56.412 56.412 0 31.155-25.257 56.413-56.412 56.413-31.156 0-56.413-25.258-56.413-56.413"/>
    </clipPath>
    <clipPath id="c">
      <path d="M0 164.568h126.754V0H0z"/>
    </clipPath>
    <clipPath id="d">
      <path d="M63.642 124.497L55.55 76.36l8.092-6.795c3.06.073 6.086.676 8.433 1.82 5.017 2.45 10.116 9.457 11.33 15.574l6.344 31.98v5.55z"/>
    </clipPath>
    <clipPath id="e">
      <path d="M0 164.568h126.754V0H0z"/>
    </clipPath>
  </defs>
  <g clip-path="url(#a)" transform="matrix(.32794 0 0 -.32776 -2.207 53.94)">
    <path fill="#e41c36" d="M119.554 98.94c0-31.156-25.258-56.413-56.412-56.413-31.156 0-56.413 25.257-56.413 56.412 0 31.15 25.25 56.41 56.41 56.41 31.15 0 56.41-25.26 56.41-56.42"/>
  </g>
  <g clip-path="url(#b)" transform="matrix(.32794 0 0 -.32776 -2.207 53.94)">
    <path fill="#252627" d="M126.754 52.1C114.166 68.364 90.347 79.343 63.02 79.343c-26.816 0-50.255-10.568-63.02-26.33L63.93 0z"/>
    <path fill="#383738" d="M98.766 79.635c-7.03 6.81-20.328 11.408-35.588 11.408-14.974 0-28.06-4.426-35.188-11.025L63.685 47.65z"/>
  </g>
  <g clip-path="url(#c)" transform="matrix(.32794 0 0 -.32776 -2.207 53.94)">
    <path fill="#cb9689" d="M52.63 79.744V66.892L63.62 55.1l11.277 11.79v13.48zm-7.998 24.07c0-3.117-1.737-5.67-3.86-5.67-2.123 0-4.326 2.51-4.894 5.576l-1.527 8.22c-.56 3.065 1.52 5.573 4.63 5.573s5.66-2.55 5.66-5.67zm37.324 0c0-3.117 1.737-5.67 3.86-5.67 2.122 0 4.326 2.51 4.895 5.576l1.53 8.22c.57 3.064-1.51 5.573-4.62 5.573s-5.66-2.55-5.66-5.67z"/>
    <path fill="#e5af9c" d="M63.642 124.497L55.55 76.36l8.092-6.796c3.06.075 6.086.677 8.433 1.822 5.017 2.448 10.116 9.456 11.33 15.573l6.343 31.98v5.55z"/>
  </g>
  <g clip-path="url(#d)" transform="matrix(.32794 0 0 -.32776 -2.207 53.94)">
    <path fill="#f7c1aa" d="M62.806 64.56l-3.05 4.617-5.77 19.513H67.35z"/>
  </g>
  <g clip-path="url(#e)" transform="matrix(.32794 0 0 -.32776 -2.207 53.94)">
    <path fill="#f7c1aa" d="M81.085 132.028h-35.73c-6.234 0-10.344-5.005-9.13-11.122L42.96 86.96c1.213-6.12 6.226-13.126 11.14-15.575 2.614-1.303 6.138-1.905 9.62-1.82l-4.693 11.63 8.284 41.538 22.52 1.764v-5.555l.39 1.964c1.21 6.117-2.9 11.122-9.13 11.122"/>
    <path fill="none" stroke="#e41c36" stroke-miterlimit="10" d="M90.845 132.007c0-5.24-12.154-9.488-27.147-9.488-14.993 0-27.146 4.24-27.146 9.48s12.153 9.485 27.146 9.485S90.845 137.24 90.845 132z"/>
    <path fill="#383738" d="M67.06 107.065h-8.027v6.85h8.026z"/>
    <path fill="#383738" d="M43.9 104.388c.604-2.26 3.01-4.107 5.35-4.107h6.483c2.34 0 4.787 1.84 5.44 4.09l2.21 7.595c.655 2.245-.723 4.08-3.062 4.08H45.04c-2.34 0-3.76-1.85-3.155-4.106z"/>
    <path fill="#383738" d="M82.71 104.39c-.603-2.26-3.01-4.11-5.35-4.11h-6.483c-2.34 0-4.787 1.838-5.44 4.083l-2.21 7.593c-.655 2.246.723 4.082 3.062 4.082h15.28c2.34 0 3.75-1.848 3.15-4.108z"/>
    <path fill="#252627" d="M106.418 125.933c0-8.85-18.782-16.02-41.947-16.02-23.16 0-41.94 7.17-41.94 16.02s18.78 16.022 41.95 16.022 41.95-7.172 41.95-16.022m-23.58 32.212c0-3.547-8.23-6.422-18.377-6.422-10.147 0-18.375 2.875-18.375 6.422 0 3.547 8.228 6.423 18.377 6.423 10.15 0 18.378-2.876 18.378-6.423"/>
    <path fill="#252627" d="M55.96 133.337l-18.278.85 6.582 21.184s2.298 7.57 9.732 7.57c7.436 0 8.838-6.74 8.838-6.74h1.824s.35-24.75 0-25.1c-.35-.35-8.698 2.246-8.698 2.246"/>
    <path fill="#252627" d="M72.982 133.337l18.278.85-6.582 21.184s-2.296 7.57-9.73 7.57c-7.438 0-8.84-6.74-8.84-6.74H63.07s-1.76-24.094-1.41-24.444c.35-.35 11.322 1.59 11.322 1.59"/>
    <path fill="#383738" d="M64.47 124.918c-13.1 0-24.116 3.402-27.327 8.02-.617-.885-.95-1.816-.95-2.778 0-5.965 12.66-10.8 28.278-10.8 15.62 0 28.28 4.835 28.28 10.8 0 .962-.33 1.893-.95 2.78-3.21-4.62-14.22-8.022-27.32-8.022"/>
  </g>
</svg>
