<svg xmlns="http://www.w3.org/2000/svg" width="34" height="34" viewBox="0 0 34 34"><g stroke-width="1.009"><path d="M26.448 6.88a14.2 13.923 0 1 0-17.444 20 63.714 62.472 0 0 1 .166-.336 63.714 62.472 0 0 1 2.92-4.671A8.39 8.227 0 0 1 14.386 5.71v.002a8.354 8.191 0 0 1 7.568 4.882 63.714 62.472 0 0 1 3.524-3.035 63.714 62.472 0 0 1 .97-.68z" fill="#cececf"/><path d="M26.448 6.88a63.714 62.472 0 0 0-.97.679 63.714 62.472 0 0 0-3.524 3.036 8.354 8.191 0 0 1 .719 3.344 8.39 8.227 0 0 1-10.583 7.934 63.714 62.472 0 0 0-2.92 4.671 63.714 62.472 0 0 0-.166.336 14.2 13.923 0 0 0 5.382.978 14.135 13.86 0 0 0 7.291-2.063L29.942 34 34 29.973l-8.123-8.063a14.135 13.86 0 0 0 2.536-7.971 14.2 13.923 0 0 0-1.965-7.06z" fill="#303336"/></g></svg>