<svg xmlns="http://www.w3.org/2000/svg" width="20.479" height="16.706" viewBox="0 0 5.4182749 4.4201303" id="svg5290"><defs id="defs5284"><style id="style5835">.cls-1{fill:#e61035;fill-rule:evenodd}</style><clipPath id="a"><path id="path5848" d="M0 88.347h72.98V0H0z"/></clipPath><style id="style5903">.cls-1{fill:#dcdcdc;fill-rule:evenodd}</style><style id="style2">.cls-1{fill:#dcdcdc;fill-rule:evenodd}</style><style id="style4489">.cls-1{fill:#e61035}</style><style id="style2-5">.cls-1{fill:#cececf;fill-rule:evenodd}</style><style id="style4489-4">.cls-1{fill:#303336}</style><style id="style2-2">.cls-1{fill:#cececf;fill-rule:evenodd}</style><style id="style4489-2">.cls-1{fill:#303336}</style><style id="style2-0">.cls-1{fill:#cececf;fill-rule:evenodd}</style><style id="style4489-9">.cls-1{fill:#303336}</style><style id="style5973">.cls-1{fill:#a1a1a1;fill-rule:evenodd}</style></defs><g id="layer1" transform="translate(247.916 -154.972)"><path d="M-922.752 585.72a4.2 4.2 0 0 0-4.283 4.235 3.8 3.8 0 0 0 .11.95 12.058 12.058 0 0 1-8.68-4.41 4.263 4.263 0 0 0-.56 2.13 4.189 4.189 0 0 0 1.89 3.51 4.432 4.432 0 0 1-1.91-.53v.05a4.156 4.156 0 0 0 3.37 4.12 3.889 3.889 0 0 1-1.12.159 3.532 3.532 0 0 1-.79-.08 4.261 4.261 0 0 0 3.93 2.931 8.447 8.447 0 0 1-5.23 1.809c-.32 0-.669-.029-.979-.059a11.931 11.931 0 0 0 6.44 1.889 11.6 11.6 0 0 0 10.91-7.1 12.534 12.534 0 0 0 1.058-4.89 5.148 5.148 0 0 0-.017-.56 8.181 8.181 0 0 0 2.088-2.179 7.705 7.705 0 0 1-2.41.66 4.3 4.3 0 0 0 1.86-2.31 8.736 8.736 0 0 1-2.69 1.01 4.2 4.2 0 0 0-2.987-1.334z" transform="scale(.26458)" id="path5977" fill="#a1a1a1" fill-rule="evenodd"/></g></svg>