<svg xmlns="http://www.w3.org/2000/svg" id="svg2" width="37" height="40" viewBox="0 0 37 40"><defs id="defs6"><clipPath id="clipPath18"><path d="M0 67.592h49.089V0H0z" id="path16"/></clipPath><clipPath id="clipPath30"><path d="M24.545 67.592C10.989 67.592 0 56.603 0 43.047c0-13.555 10.989-24.544 24.545-24.544 13.555 0 24.544 10.989 24.544 24.544 0 13.556-10.989 24.545-24.544 24.545z" id="path28"/></clipPath><clipPath id="clipPath42"><path d="M0 67.592h49.089V0H0z" id="path40"/></clipPath><style id="style5322">.cls-1{fill:#303336;opacity:.2;mix-blend-mode:multiply}</style><clipPath id="clipPath18-7"><path d="M0 67.592h49.089V0H0z" id="path16-2"/></clipPath><clipPath id="clipPath18-8"><path d="M0 67.592h49.089V0H0z" id="path16-4"/></clipPath></defs><g id="g10" transform="matrix(1.33333 0 0 -1.33333 14.91 104.708)"><g id="g9495" transform="translate(-4.86 23.305) scale(.5653)"><circle r="24.544" transform="scale(-1 1) rotate(-61.639)" cy="22.954" cx="-70.652" id="path9347-3" fill="#ccc" stroke-width=".869" paint-order="markers stroke fill"/><g transform="translate(-11.284 30.028)" id="g9369"><g id="g24"><g id="g26" clip-path="url(#clipPath30)"><g id="g32" transform="translate(46.019 22.667)"><path d="M0 0c-4.245 7.077-12.277 11.854-21.493 11.854-9.043 0-16.946-4.598-21.252-11.456l21.559-23.065z" id="path34" fill="#b2b6bc"/></g></g></g><g id="g36"><g id="g38" clip-path="url(#clipPath42)"><g id="g44" transform="translate(19.971 34.695)"><path d="M0 0v-5.592l4.781-5.131 4.907 5.131V.272z" id="path46" fill="#d2d6db"/></g><g id="g48" transform="translate(16.056 46.915)"><path d="M0 0c0-2.316-.756-4.213-1.679-4.213-.924 0-2.032 1.897-2.462 4.213-.43 2.318.326 4.214 1.68 4.214C-1.108 4.214 0 2.318 0 0" id="path50" fill="#f8f9fa"/></g><g id="g52" transform="translate(33.165 46.915)"><path d="M0 0c0-2.316.756-4.213 1.68-4.213.923 0 2.031 1.897 2.461 4.213.43 2.318-.326 4.214-1.679 4.214C1.108 4.214 0 2.318 0 0" id="path54" fill="#e4e5e9"/></g><g id="g56" transform="translate(24.762 54.167)"><path d="M0 0l-3.521-20.944L0-23.9c1.331.032 2.648.294 3.669.792 2.183 1.065 4.401 4.114 4.929 6.776l2.76 13.915V0z" id="path58" fill="#e4e5e9"/></g><g id="g60" transform="translate(32.351 61.108)"><path d="M0 0s-2.955 2.313-7.764 2.313C-12.315 2.313-15.545 0-15.545 0c-2.713-1.155-4.501-5.842-3.973-8.504l2.93-14.769c.528-2.663 2.709-5.711 4.847-6.777 1.137-.567 2.671-.829 4.186-.792l-2.042 5.06 3.435 15.687h9.856l.28 1.591C4.501-5.842 2.713-1.155 0 0" id="path62" fill="#f8f9fa"/></g><g id="g64" transform="translate(24.762 30.267)"><path d="M0 0l-1.668.673-2.533 7.648h5.815z" id="path66" fill="#f8f9fa"/></g><g id="g68" transform="translate(18.3 45.37)"><path d="M0 0h11.75v2.631H.656z" id="path70" fill="#e4e5e9"/></g></g></g></g><path id="Ellipse_17_copy" d="M-4.126 55.857a24.545 24.544 16.639 0 1 1.77-1.632 24.545 24.544 16.639 0 1 1.96-1.475 24.545 24.544 16.639 0 1 2.099-1.273 24.545 24.544 16.639 0 1 1.557-.77 24.545 24.544 16.639 0 1 2.283-.897 24.545 24.544 16.639 0 1 2.363-.664 24.545 24.544 16.639 0 1 2.416-.426 24.545 24.544 16.639 0 1 2.446-.182 24.545 24.544 16.639 0 1 2.454.063 24.545 24.544 16.639 0 1 2.433.31 24.545 24.544 16.639 0 1 2.392.549 24.545 24.544 16.639 0 1 2.323.785 24.545 24.544 16.639 0 1 2.235 1.012 24.545 24.544 16.639 0 1 2.121 1.232 24.545 24.544 16.639 0 1 1.99 1.437 24.545 24.544 16.639 0 1 1.835 1.629 24.545 24.544 16.639 0 1 1.663 1.803 24.545 24.544 16.639 0 1 1.475 1.96 24.545 24.544 16.639 0 1 1.271 2.1 24.545 24.544 16.639 0 1 .77 1.555 24.545 24.544 16.639 0 1 .899 2.284 24.545 24.544 16.639 0 1 .663 2.362 24.545 24.544 16.639 0 1 .425 2.416 24.545 24.544 16.639 0 1 .183 2.448 24.545 24.544 16.639 0 1-.064 2.452 24.545 24.544 16.639 0 1-.308 2.433 24.545 24.544 16.639 0 1-.55 2.392 24.545 24.544 16.639 0 1-.784 2.325 24.545 24.544 16.639 0 1-1.014 2.234 24.545 24.544 16.639 0 1-.41.709A60.646 60.646 0 0 1-4.126 55.857z" style="mix-blend-mode:multiply" opacity=".2" fill="#303336" stroke-width=".97"/></g></g></svg>